<?xml version="1.0" encoding="utf-8"?>
<!-- Generator: Adobe Illustrator 24.1.0, SVG Export Plug-In . SVG Version: 6.00 Build 0)  -->
<svg version="1.1" xmlns="http://www.w3.org/2000/svg" xmlns:xlink="http://www.w3.org/1999/xlink" x="0px" y="0px"
	 viewBox="0 0 1024 720" style="enable-background:new 0 0 1024 720;" xml:space="preserve">
<style type="text/css">
	.st0{fill:#FFFFFF;}
	.st1{fill:#4C576D;}
	.st2{fill:#EE7325;}
	.st3{fill-rule:evenodd;clip-rule:evenodd;fill:#FFFFFF;}
	.st4{fill-rule:evenodd;clip-rule:evenodd;fill:#EE7325;}
</style>
<g id="Layer_2">
	<rect class="st0" width="1024" height="720"/>
</g>
<g id="Layer_1">
	<g id="XMLID_5_">
		<g id="XMLID_4_">
			<path id="XMLID_183_" class="st1" d="M306.27,527.74l-17.12-25.57h-13.81v25.57h-17.58v-79.9h36.53
				c18.83,0,30.13,9.93,30.13,26.37v0.23c0,12.9-6.96,21-17.12,24.77l19.52,28.54H306.27z M306.61,475.12
				c0-7.54-5.25-11.42-13.81-11.42h-17.46v22.94h17.81c8.56,0,13.47-4.57,13.47-11.3V475.12z"/>
			<path id="XMLID_186_" class="st1" d="M371.35,529c-21.46,0-34.59-11.99-34.59-35.5v-45.66h17.58v45.2
				c0,13.01,6.5,19.75,17.24,19.75c10.73,0,17.24-6.51,17.24-19.18v-45.77h17.58v45.09C406.4,517.13,392.81,529,371.35,529z"/>
			<path id="XMLID_188_" class="st1" d="M450.48,528.89c-12.1,0-24.31-4.22-33.9-12.78l10.39-12.44c7.19,5.94,14.72,9.7,23.86,9.7
				c7.19,0,11.53-2.85,11.53-7.53v-0.23c0-4.45-2.74-6.73-16.09-10.16c-16.1-4.11-26.48-8.56-26.48-24.43v-0.23
				c0-14.5,11.64-24.08,27.97-24.08c11.64,0,21.57,3.65,29.68,10.16l-9.13,13.24c-7.08-4.91-14.04-7.88-20.77-7.88
				c-6.74,0-10.27,3.08-10.27,6.96v0.23c0,5.25,3.42,6.96,17.24,10.5c16.21,4.22,25.34,10.05,25.34,23.97v0.23
				C479.81,519.98,467.71,528.89,450.48,528.89z"/>
			<path id="XMLID_190_" class="st1" d="M527.32,464.05v63.7h-17.58v-63.7h-24.31v-16.21h66.21v16.21H527.32z"/>
			<path id="XMLID_192_" class="st2" d="M625.73,503.77h-13.36v23.97H594.8v-79.9h32.65c19.06,0,30.59,11.3,30.59,27.62v0.23
				C658.04,494.19,643.65,503.77,625.73,503.77z M640.23,475.81c0-7.88-5.48-12.1-14.27-12.1h-13.59v24.43h13.93
				c8.79,0,13.92-5.25,13.92-12.1V475.81z"/>
			<path id="XMLID_195_" class="st2" d="M669.58,527.74v-79.9h17.58v79.9H669.58z"/>
			<path id="XMLID_198_" class="st2" d="M704.87,527.74v-79.9h60.27v15.64h-42.8v16.21H760v15.64h-37.67v16.78h43.37v15.64H704.87z"
				/>
		</g>
		<g id="XMLID_3_">
			<g id="XMLID_28_">
				<g>
					<path id="XMLID_152_" class="st1" d="M408.72,337.14c-0.22,0.35-0.44,0.66-0.7,1.01v-0.22L408.72,337.14z"/>
					<path id="XMLID_151_" class="st1" d="M431.72,337.45c-9.04,10.45-8.87,14.48-10.36,25.72l-1.27-2.46
						c3.12-10.14,4.87-11.76,2.41-18.92c-0.83-1.71-1.93-2.41-3.16-2.46c0.75-1.76,1.76-3.51,3.12-5.27L431.72,337.45z"/>
					<path id="XMLID_150_" class="st1" d="M605.66,344.91c-2.94,0.97-4.87,1.71-6.63,3.29c-1.36-3.12-3.51-6.41-7.29-10.75
						l9.26-3.38C603.82,337.75,605.18,341.31,605.66,344.91z"/>
					<path id="XMLID_149_" class="st1" d="M597.41,361.06c0.31,2.19,0.61,4.65,1.1,7.55l-3.25,3.25c-3.03,0.04-5.35,0-7.29,0
						c-4.83,0-7.11,0.35-11.46,3.6c-6.19,5.88,9.09,10.75,9.09,10.75l-15.8,8.08c-10.18-3.07-11.76-4.83-18.96-2.37
						c-7.68,3.69,5.31,13.04,5.31,13.04l-17.51,2.81c-8.69-6.1-9.7-8.25-17.29-8.12c-8.47,1.1,1.01,14.05,1.01,14.05l-17.51-2.76
						c-6.41-8.47-6.67-10.84-13.91-13.04c-8.38-1.58-3.38,13.65-3.38,13.65l-15.8-8.03c-1.71-5.05-2.5-8.12-3.6-10.49
						c-1.1-2.37-2.5-4.04-5.62-6.23c-7.51-4.08-7.42,11.94-7.42,11.94l-12.6-12.51c-0.18-10.62,0.97-12.68-3.56-18.74
						c-5.88-6.23-10.8,9.04-10.8,9.04l-3.38-6.63c0.57-3.47,0.97-6.32,1.27-8.82c1.19-9.09,1.58-12.16,8.95-20.76l0.92-1.01
						c3.77,0.92,7.29,1.71,10.58,2.37c2.11,26.73,14.7,32.35,25.33,32.35l11.89-0.18l-9.17-7.59c-9.17-7.59-10.05-13.34-8.82-17.56
						c15.67,4.83,30.11,7.29,43.01,7.29c1.05,0,2.11,0,2.85-0.04c1.01,0.04,2.06,0.04,3.12,0.04c12.86,0,27.34-2.46,43.01-7.29
						c1.23,4.21,0.35,9.96-8.82,17.56l-9.04,7.77h12.16c10.23,0,22.82-5.62,24.93-32.35c3.29-0.66,6.8-1.45,10.58-2.37l0.92,1.01
						c4.3,5,6.23,8.16,7.33,11.72c0.79,2.41,0.72,2.81,1.05,4.92C597.02,358.16,597.19,359.52,597.41,361.06z"/>
					<path id="XMLID_148_" class="st1" d="M604.78,359.13c-0.22,1.23-0.44,2.55-0.66,3.86l-1.8,1.8c-0.31-2.28-0.57-4.3-0.79-6.1
						C602.68,358.91,603.82,359.08,604.78,359.13z"/>
					<path id="XMLID_147_" class="st1" d="M615.14,337.58l-0.04,0.09c-0.09-0.18-0.22-0.35-0.35-0.53L615.14,337.58z"/>
					<path id="XMLID_146_" class="st1" d="M620.59,326.82l-3.56,6.98c-1.71-2.02-3.12-3.86-4.21-5.49
						C616.5,328.14,620.59,326.82,620.59,326.82z"/>
					<path id="XMLID_145_" class="st1" d="M418.5,243.16c-0.22,0.97-0.35,1.93-0.44,2.94c-1.27-0.09-2.19-0.09-2.37-0.09
						L418.5,243.16z"/>
					<path id="XMLID_144_" class="st1" d="M445.37,222.75c-0.97-0.75-2.11-1.36-3.16-1.89c0.7-0.61,1.4-1.19,2.06-1.71
						C444.71,220.34,445.06,221.57,445.37,222.75z"/>
					<path id="XMLID_143_" class="st1" d="M455.42,212.61c-2.33,0.22-4.56,0.53-6.72,0.97l3.16-1.62
						C453,212.13,454.23,212.35,455.42,212.61z"/>
					<path id="XMLID_142_" class="st1" d="M575.51,213.71c-2.37-0.48-4.83-0.83-7.46-1.1c1.84-0.39,3.69-0.7,5.44-0.88
						L575.51,213.71z"/>
					<path id="XMLID_141_" class="st1" d="M448.53,218.06c2.28-0.48,4.7-0.83,7.29-1.05l0.31-5.22c5.14,1.67,7.77,2.77,10.71,2.77
						c1.67,0,3.42-0.35,5.79-1.14c7.68-3.69-5.31-13.04-5.31-13.04l17.51-2.81c8.69,6.1,9.7,8.25,17.29,8.12
						c8.43-1.1-1.01-14.05-1.01-14.05l17.51,2.77c6.41,8.47,6.67,10.84,13.91,13.08c8.38,1.54,3.38-13.69,3.38-13.69l15.8,8.03
						c3.47,10.05,3.03,12.38,9.22,16.72c3.73,2.02,5.62-0.92,6.54-4.43l0.18,2.9c2.55,0.22,5,0.57,7.29,1.05
						c-6.8,19.93-2.46,39.59,12.95,58.64c-3.69,0.31-7.15,0.44-10.4,0.44c-5.84,0-10.97-0.48-15.36-1.4
						c0.09-0.09,0.13-0.18,0.18-0.26c1.19-1.8,1.23-4.13,0.13-6.19c-1.49-2.68-4.52-4.39-7.77-4.39c-2.37,0-6.32,0.88-9.48,6.1
						c-13.69-6.23-24.27-9.26-32.17-9.26c-0.44,0-0.88,0.04-1.27,0.04c-0.44,0-0.83-0.04-1.27-0.04c-7.9,0-18.48,3.03-32.17,9.26
						c-3.16-5.22-7.11-6.1-9.48-6.1c-3.25,0-6.28,1.71-7.77,4.39c-1.1,2.06-1.05,4.39,0.13,6.19c0.04,0.09,0.09,0.18,0.18,0.26
						c-4.39,0.92-9.52,1.4-15.36,1.4c-3.25,0-6.71-0.13-10.4-0.44C450.98,257.65,455.33,237.98,448.53,218.06z"/>
					<path id="XMLID_140_" class="st1" d="M613.39,310.63c0.53,0.7,1.1,1.49,1.8,2.41c-4.7,3.38-6.5,4.78-8.25,10.45
						c-0.61,3.25,1.32,4.48,3.86,4.74c-4.08,1.27-7.94,2.37-11.63,3.42c-20.41,5.75-34.98,8.43-43.8,7.99
						c6.98,0.53,12.73,0.83,17.25,0.97c-1.36,19.53-8.34,29.19-20.89,29.01c10.62-8.82,13.43-17.6,8.43-26.29
						c-18.04,5.93-34.15,8.65-48.41,8.21c-14.27,0.44-30.37-2.28-48.41-8.21c-5,8.69-2.19,17.47,8.43,26.29
						c-12.55,0.18-19.53-9.48-20.89-29.01c4.52-0.13,10.27-0.44,17.25-0.97c-8.82,0.44-23.39-2.24-43.8-7.99
						c-4.17-1.18-8.6-2.46-13.26-3.91c-1.05,1.54-2.33,3.29-3.86,5.18l-0.53-3.38c5.53-7.9,7.81-9.44,8.08-15.36
						c18.17,13.26,33.75,18.08,46.83,14.53c-28.88-4.48-47.54-17.47-57.68-33.23c3.99-3.03,6.58-4.61,8.47-6.32
						c1.93-1.8,3.07-3.69,4.17-7.33c1.58-8.38-13.65-3.34-13.65-3.34l8.03-15.84c5-1.76,8.08-2.46,10.49-3.56
						c2.37-1.1,4.04-2.55,6.23-5.66c2.55-4.65-2.68-6.41-6.98-7.07c3.34-4.87,6.58-9.17,9.61-12.95c2.06,0,3.77,0.04,5.22,0.04
						c4.78,0,7.07-0.35,11.37-3.56c2.24,17.03-4.52,33.84-20.23,50.39c1.67,5.44,2.77,10.05,3.2,13.83
						c6.1-0.88,8.73,4.08,12.73,7.64c9.96,8.91,20.63,12.11,32.09,9.66c-20.76-0.97-34.1-11.1-39.99-30.37
						c14.22,1.19,25.37,0.26,33.45-2.68c-1.1-1.84-2.19-3.6-3.25-5.27c-1.67-2.55,6.85-8.78,11.32,3.73
						c15.76-7.51,27.61-11.06,35.55-10.67c7.94-0.39,19.8,3.16,35.55,10.67c4.48-12.51,12.99-6.28,11.32-3.73
						c-1.05,1.67-2.15,3.42-3.25,5.27c8.08,2.94,19.22,3.86,33.45,2.68c-5.88,19.27-19.23,29.41-39.99,30.37
						c11.46,2.46,22.12-0.75,32.09-9.66c3.99-3.56,6.63-8.51,12.73-7.64c0.44-3.77,1.54-8.38,3.2-13.83
						c-19.01-20.01-24.89-40.38-17.64-61.14c0.57,0.44,1.14,0.92,1.76,1.45c0.09,9.35-0.75,11.5,3.6,17.29
						c3.56,3.78,6.8-0.48,8.73-4.35c3.03,3.73,6.23,8.03,9.52,12.82c-2.77,8.6-4.17,10.45-1.8,17.16
						c3.64,7.72,12.99-5.31,12.99-5.31l2.81,17.56c-6.06,8.69-8.25,9.66-8.12,17.25c0.88,6.5,8.65,2.46,12.25,0.22
						c-9.74,16.77-28.79,30.77-59.04,35.46C576.08,332.57,593.24,326.56,613.39,310.63z"/>
				</g>
			</g>
			<path id="XMLID_64_" class="st3" d="M431.72,337.45c-9.04,10.45-8.87,14.48-10.36,25.72c-0.26,1.98-0.57,4.17-1.01,6.67
				c-1.32-11.98-5.09-21.11-1.01-30.51c0.75-1.76,1.76-3.51,3.12-5.27L431.72,337.45z"/>
			<path id="XMLID_67_" class="st3" d="M604.78,359.13c-0.22,1.23-0.44,2.55-0.66,3.86c-0.39,2.19-0.75,4.48-1.01,6.85
				c-0.31-1.84-0.57-3.51-0.79-5.05c-0.31-2.28-0.57-4.3-0.79-6.1c-0.57-4.13-1.1-7.24-2.5-10.49c-1.36-3.12-3.51-6.41-7.29-10.75
				l9.26-3.38c2.81,3.69,4.17,7.24,4.65,10.84C606.36,349.43,605.66,354.04,604.78,359.13z"/>
			<path id="XMLID_122_" class="st3" d="M615.14,337.58l22.65,24.58c-1.18,10.67-3.64,17.86-7.29,21.51
				c3.29-23.97-2.85-27.35-15.41-46c-0.09-0.18-0.22-0.35-0.35-0.53L615.14,337.58z"/>
			<path id="XMLID_120_" class="st3" d="M408.01,337.93l0.7-0.79c-0.22,0.35-0.44,0.66-0.7,1.01
				c-12.29,18.26-18.35,21.77-15.06,45.52c-3.64-3.64-6.1-10.84-7.29-21.51L408.01,337.93z"/>
			<path id="XMLID_117_" class="st3" d="M615.19,313.04c-0.7-0.92-1.27-1.71-1.8-2.41c-20.15,15.93-37.31,21.95-51.49,18.08
				c30.24-4.7,49.29-18.7,59.04-35.46c21.55-36.87-1.49-87.17-47.45-81.51c-1.76,0.18-3.6,0.48-5.44,0.88
				c2.63,0.26,5.09,0.61,7.46,1.1c19.49,3.99,29.58,16.33,30.2,36.96c-0.97-1.49-1.93-2.9-2.9-4.3c-3.29-4.78-6.5-9.09-9.52-12.82
				c-4.39-5.4-8.51-9.74-12.33-12.95c-0.61-0.53-1.18-1.01-1.76-1.45c-7.24,20.76-1.36,41.13,17.64,61.14
				c-1.67,5.44-2.77,10.05-3.2,13.83c-6.1-0.88-8.73,4.08-12.73,7.64c-9.96,8.91-20.63,12.11-32.09,9.66
				c20.76-0.97,34.1-11.1,39.99-30.37c-14.22,1.19-25.37,0.26-33.45-2.68c1.1-1.84,2.19-3.6,3.25-5.27
				c1.67-2.55-6.85-8.78-11.32,3.73c-15.76-7.51-27.61-11.06-35.55-10.67c-7.94-0.39-19.8,3.16-35.55,10.67
				c-4.48-12.51-12.99-6.28-11.32-3.73c1.05,1.67,2.15,3.42,3.25,5.27c-8.08,2.94-19.22,3.86-33.45,2.68
				c5.88,19.27,19.23,29.41,39.99,30.37c-11.46,2.46-22.12-0.75-32.09-9.66c-3.99-3.56-6.63-8.51-12.73-7.64
				c-0.44-3.77-1.54-8.38-3.2-13.83c15.71-16.55,22.47-33.36,20.23-50.39c-0.31-2.37-0.79-4.78-1.49-7.15
				c-0.31-1.18-0.66-2.41-1.1-3.6c-0.66,0.53-1.36,1.1-2.06,1.71c0,0,0,0-0.04,0c-3.69,3.2-7.64,7.37-11.89,12.55
				c-3.03,3.78-6.28,8.08-9.61,12.95c-0.97,1.4-1.93,2.81-2.9,4.3c0.04-1.58,0.13-3.12,0.31-4.56c0.09-1.01,0.22-1.97,0.44-2.94
				c2.63-16.37,12.73-26.25,30.2-29.58c2.15-0.44,4.39-0.75,6.72-0.97c-1.19-0.26-2.41-0.48-3.56-0.66
				c-48.15-7.42-72.16,46-47.97,83.53c10.14,15.76,28.79,28.75,57.68,33.23c-13.08,3.56-28.66-1.27-46.83-14.53
				c-1.54-1.14-3.07-2.33-4.65-3.55c-4.96,6.8-18.04,23.09-39.28,48.81c0.18,6.1,1.36,17.6,3.55,34.59l6.72-33.62
				c11.94-11.46,20.63-20.63,26.12-27.48c1.54-1.89,2.81-3.64,3.86-5.18c4.65,1.45,9.09,2.72,13.26,3.91
				c20.41,5.75,34.98,8.43,43.8,7.99c-6.98,0.53-12.73,0.83-17.25,0.97c1.36,19.53,8.34,29.19,20.89,29.01
				c-10.62-8.82-13.43-17.6-8.43-26.29c18.04,5.93,34.15,8.65,48.41,8.21c14.27,0.44,30.37-2.28,48.41-8.21
				c5,8.69,2.19,17.47-8.43,26.29c12.55,0.18,19.53-9.48,20.89-29.01c-4.52-0.13-10.27-0.44-17.25-0.97
				c8.82,0.44,23.39-2.24,43.8-7.99c3.69-1.05,7.55-2.15,11.63-3.42c0.66,0.09,1.32,0.13,2.02,0.09c1.1,1.62,2.5,3.47,4.21,5.49
				c5.49,6.76,13.96,15.63,25.37,26.6l6.72,33.62c2.19-16.99,3.38-28.49,3.55-34.59C633.62,336.35,621.11,320.9,615.19,313.04z"/>
			<path id="XMLID_11_" class="st4" d="M422.45,334.07c-1.36,1.76-2.37,3.51-3.12,5.27c-4.08,9.39-0.31,18.52,1.01,30.51
				c0.44-2.5,0.75-4.7,1.01-6.67c1.49-11.24,1.32-15.27,10.36-25.72L422.45,334.07z M408.72,337.14l-0.7,0.79l-22.34,24.23
				c1.19,10.67,3.64,17.86,7.29,21.51c-3.29-23.75,2.77-27.26,15.06-45.52C408.28,337.8,408.5,337.49,408.72,337.14z M605.66,344.91
				c-0.48-3.6-1.84-7.15-4.65-10.84l-9.26,3.38c3.77,4.35,5.93,7.64,7.29,10.75c1.4,3.25,1.93,6.36,2.5,10.49
				c0.22,1.8,0.48,3.82,0.79,6.1c0.22,1.54,0.48,3.2,0.79,5.05c0.26-2.37,0.61-4.65,1.01-6.85c0.22-1.32,0.44-2.63,0.66-3.86
				C605.66,354.04,606.36,349.43,605.66,344.91z M637.79,362.16l-22.65-24.58l-0.4-0.44c0.13,0.18,0.26,0.35,0.35,0.53
				c12.55,18.65,18.7,22.03,15.41,46C634.15,380.02,636.61,372.82,637.79,362.16z M615.19,313.04c-0.7-0.92-1.27-1.71-1.8-2.41
				c-20.15,15.93-37.31,21.95-51.49,18.08c30.24-4.7,49.29-18.7,59.04-35.46c21.55-36.87-1.49-87.17-47.45-81.51
				c-1.76,0.18-3.6,0.48-5.44,0.88c2.63,0.26,5.09,0.61,7.46,1.1c19.49,3.99,29.58,16.33,30.2,36.96c-0.97-1.49-1.93-2.9-2.9-4.3
				c-3.29-4.78-6.5-9.09-9.52-12.82c-4.39-5.4-8.51-9.74-12.33-12.95c-0.61-0.53-1.18-1.01-1.76-1.45
				c-7.24,20.76-1.36,41.13,17.64,61.14c-1.67,5.44-2.77,10.05-3.2,13.83c-6.1-0.88-8.73,4.08-12.73,7.64
				c-9.96,8.91-20.63,12.11-32.09,9.66c20.76-0.97,34.1-11.1,39.99-30.37c-14.22,1.19-25.37,0.26-33.45-2.68
				c1.1-1.84,2.19-3.6,3.25-5.27c1.67-2.55-6.85-8.78-11.32,3.73c-15.76-7.51-27.61-11.06-35.55-10.67
				c-7.94-0.39-19.8,3.16-35.55,10.67c-4.48-12.51-12.99-6.28-11.32-3.73c1.05,1.67,2.15,3.42,3.25,5.27
				c-8.08,2.94-19.22,3.86-33.45,2.68c5.88,19.27,19.23,29.41,39.99,30.37c-11.46,2.46-22.12-0.75-32.09-9.66
				c-3.99-3.56-6.63-8.51-12.73-7.64c-0.44-3.77-1.54-8.38-3.2-13.83c15.71-16.55,22.47-33.36,20.23-50.39
				c-0.31-2.37-0.79-4.78-1.49-7.15c-0.31-1.18-0.66-2.41-1.1-3.6c-0.66,0.53-1.36,1.1-2.06,1.71c0,0,0,0-0.04,0
				c-3.69,3.2-7.64,7.37-11.89,12.55c-3.03,3.78-6.28,8.08-9.61,12.95c-0.97,1.4-1.93,2.81-2.9,4.3c0.04-1.58,0.13-3.12,0.31-4.56
				c0.09-1.01,0.22-1.97,0.44-2.94c2.63-16.37,12.73-26.25,30.2-29.58c2.15-0.44,4.39-0.75,6.72-0.97
				c-1.19-0.26-2.41-0.48-3.56-0.66c-48.15-7.42-72.16,46-47.97,83.53c10.14,15.76,28.79,28.75,57.68,33.23
				c-13.08,3.56-28.66-1.27-46.83-14.53c-1.54-1.14-3.07-2.33-4.65-3.55c-4.96,6.8-18.04,23.09-39.28,48.81
				c0.18,6.1,1.36,17.6,3.55,34.59l6.72-33.62c11.94-11.46,20.63-20.63,26.12-27.48c1.54-1.89,2.81-3.64,3.86-5.18
				c4.65,1.45,9.09,2.72,13.26,3.91c20.41,5.75,34.98,8.43,43.8,7.99c-6.98,0.53-12.73,0.83-17.25,0.97
				c1.36,19.53,8.34,29.19,20.89,29.01c-10.62-8.82-13.43-17.6-8.43-26.29c18.04,5.93,34.15,8.65,48.41,8.21
				c14.27,0.44,30.37-2.28,48.41-8.21c5,8.69,2.19,17.47-8.43,26.29c12.55,0.18,19.53-9.48,20.89-29.01
				c-4.52-0.13-10.27-0.44-17.25-0.97c8.82,0.44,23.39-2.24,43.8-7.99c3.69-1.05,7.55-2.15,11.63-3.42c0.53-0.13,1.1-0.31,1.62-0.48
				c0.13,0.18,0.26,0.39,0.39,0.57c1.1,1.62,2.5,3.47,4.21,5.49c5.49,6.76,13.96,15.63,25.37,26.6l6.72,33.62
				c2.19-16.99,3.38-28.49,3.55-34.59C633.62,336.35,621.11,320.9,615.19,313.04z"/>
			<path id="XMLID_41_" class="st1" d="M503.47,301.42c0,7.45-5.06,13.5-11.3,13.5c-6.24,0-11.3-6.04-11.3-13.5
				c0-7.45,5.06-13.5,11.3-13.5C498.4,287.92,503.47,293.97,503.47,301.42z"/>
			<path id="XMLID_43_" class="st2" d="M493.17,295.56c0,3.69-2.51,6.68-5.6,6.68c-3.09,0-5.6-2.99-5.6-6.68
				c0-3.69,2.51-6.68,5.6-6.68C490.67,288.88,493.17,291.87,493.17,295.56z"/>
			<path id="XMLID_47_" class="st1" d="M542.6,301.42c0,7.45-5.06,13.5-11.3,13.5c-6.24,0-11.3-6.04-11.3-13.5
				c0-7.45,5.06-13.5,11.3-13.5C537.54,287.92,542.6,293.97,542.6,301.42z"/>
			<path id="XMLID_44_" class="st2" d="M532.99,295.42c0,3.62-2.45,6.55-5.48,6.55c-3.03,0-5.48-2.93-5.48-6.55
				c0-3.62,2.45-6.55,5.48-6.55C530.53,288.88,532.99,291.81,532.99,295.42z"/>
		</g>
	</g>
</g>
</svg>
